<?xml version="1.0" encoding="UTF-8" standalone="no"?>
<!-- Created with Inkscape (http://www.inkscape.org/) -->

<svg
   xmlns:dc="http://purl.org/dc/elements/1.1/"
   xmlns:cc="http://creativecommons.org/ns#"
   xmlns:rdf="http://www.w3.org/1999/02/22-rdf-syntax-ns#"
   xmlns:svg="http://www.w3.org/2000/svg"
   xmlns="http://www.w3.org/2000/svg"
   xmlns:sodipodi="http://sodipodi.sourceforge.net/DTD/sodipodi-0.dtd"
   xmlns:inkscape="http://www.inkscape.org/namespaces/inkscape"
   id="svg2"
   version="1.1"
   inkscape:version="0.91 r13725"
   xml:space="preserve"
   width="910"
   height="197"
   viewBox="0 0 910.00004 197"
   sodipodi:docname="logo01.svg"><metadata
     id="metadata8"><rdf:RDF><cc:Work
         rdf:about=""><dc:format>image/svg+xml</dc:format><dc:type
           rdf:resource="http://purl.org/dc/dcmitype/StillImage" /><dc:title></dc:title></cc:Work></rdf:RDF></metadata><defs
     id="defs6" /><sodipodi:namedview
     pagecolor="#ffffff"
     bordercolor="#666666"
     borderopacity="1"
     objecttolerance="10"
     gridtolerance="10"
     guidetolerance="10"
     inkscape:pageopacity="0"
     inkscape:pageshadow="2"
     inkscape:window-width="1920"
     inkscape:window-height="1015"
     id="namedview4"
     showgrid="false"
     inkscape:zoom="0.49589599"
     inkscape:cx="532.13825"
     inkscape:cy="-14.046068"
     inkscape:window-x="0"
     inkscape:window-y="0"
     inkscape:window-maximized="1"
     inkscape:current-layer="g10" /><g
     id="g10"
     inkscape:groupmode="layer"
     inkscape:label="ink_ext_XXXXXX"
     transform="matrix(1.25,0,0,-1.25,0,196.99994)"><g
       id="g12"
       transform="matrix(0.1,0,0,0.1,-726.04042,1.6000025)"><path
         d="m 3339.23,4302.51 1204.46,701.49 -375.44,0 -862.32,-407.23 33.3,-294.26"
         style="fill:#403836;fill-opacity:1;fill-rule:nonzero;stroke:none"
         id="path14"
         inkscape:connector-curvature="0" /><path
         d="m 4543.69,5004 0,-153.23 -1204.46,-701.49 0,184.51 1204.46,670.21"
         style="fill:#241f1d;fill-opacity:1;fill-rule:nonzero;stroke:none"
         id="path16"
         inkscape:connector-curvature="0" /><path
         d="m 2539.78,4149.28 799.46,0 1244.3,2169.32 -39.2,1295.9 -2004.56,-3465.22"
         style="fill:#241f1d;fill-opacity:1;fill-rule:nonzero;stroke:none"
         id="path18"
         inkscape:connector-curvature="0" /><path
         d="m 4538.41,6240.07 5.93,1374.43 1596.95,-2766 -801.44,0 -801.44,1391.57"
         style="fill:#403836;fill-opacity:1;fill-rule:nonzero;stroke:none"
         id="path20"
         inkscape:connector-curvature="0" /><path
         d="m 4544.34,7614.5 0,-279.47 L 5544.66,5881.89 4544.34,7614.5"
         style="fill:#241f1d;fill-opacity:1;fill-rule:nonzero;stroke:none"
         id="path22"
         inkscape:connector-curvature="0" /><path
         d="m 4545.78,7614.5 0,-279.47 L 3545.46,5881.89 4545.78,7614.5"
         style="fill:#1d1817;fill-opacity:1;fill-rule:nonzero;stroke:none"
         id="path24"
         inkscape:connector-curvature="0" /><path
         d="m 4310.07,5279.39 228.34,0 0,395.51 -228.34,-395.51"
         style="fill:#403836;fill-opacity:1;fill-rule:nonzero;stroke:none"
         id="path26"
         inkscape:connector-curvature="0" /><path
         d="m 4538.41,5674.9 0,-395.51 228.35,0 -228.35,395.51"
         style="fill:#241f1d;fill-opacity:1;fill-rule:nonzero;stroke:none"
         id="path28"
         inkscape:connector-curvature="0" /><path
         d="m 2652.4,3488.77 217.38,0 -108.25,253.76 -109.13,-253.76 z m 295.33,-181.87 -37.24,87.47 -298.79,0 -37.25,-87.47 -95.26,0 282.34,642.62 282.33,-642.62 -96.13,0"
         style="fill:#403836;fill-opacity:1;fill-rule:nonzero;stroke:none"
         id="path30"
         inkscape:connector-curvature="0" /><path
         d="m 3379.02,3384.84 c 19.05,0 36.94,3.77 53.7,11.29 16.73,7.52 31.18,17.81 43.3,30.84 12.13,13.03 21.79,28.1 29.02,45.17 7.21,17.08 10.82,35.47 10.82,55.17 0,19.69 -3.61,38.08 -10.82,55.16 -7.23,17.08 -16.89,31.99 -29.02,44.74 -12.12,12.74 -26.57,22.88 -43.3,30.41 -16.76,7.52 -34.65,11.3 -53.7,11.3 -19.05,0 -36.81,-3.78 -53.26,-11.3 -16.46,-7.53 -30.89,-17.67 -43.3,-30.41 -12.42,-12.75 -22.24,-27.66 -29.45,-44.74 -7.23,-17.08 -10.83,-35.47 -10.83,-55.16 0,-19.7 3.6,-38.09 10.83,-55.17 7.21,-17.07 17.03,-32.14 29.45,-45.17 12.41,-13.03 26.84,-23.32 43.3,-30.84 16.45,-7.52 34.21,-11.29 53.26,-11.29 z m 24.25,381.94 c 28.87,0 56.15,-6.21 81.84,-18.63 25.69,-12.42 48.07,-29.44 67.12,-51.09 19.06,-21.65 34.07,-46.91 45.04,-75.78 10.96,-28.88 16.45,-59.76 16.45,-92.67 0,-32.91 -5.49,-63.81 -16.45,-92.66 -10.97,-28.88 -25.98,-54.13 -45.04,-75.78 -19.05,-21.65 -41.43,-38.7 -67.12,-51.1 -25.69,-12.41 -52.97,-18.62 -81.84,-18.62 -32.91,0 -63.09,7.59 -90.5,22.73 -27.43,15.16 -50.96,35.62 -70.59,61.37 l 0,-67.65 -94.39,0 0,642.62 94.39,0 0,-267.62 c 19.63,25.99 43.16,46.62 70.59,61.93 27.41,15.29 57.59,22.95 90.5,22.95"
         style="fill:#403836;fill-opacity:1;fill-rule:nonzero;stroke:none"
         id="path32"
         inkscape:connector-curvature="0" /><path
         d="m 3856.21,3767.65 c 16.74,0 31.46,-1.61 44.17,-4.77 12.69,-3.18 23.67,-6.49 32.91,-9.96 10.39,-4.63 19.62,-9.52 27.72,-14.72 l -46.03,-71.02 c -4.06,4.03 -9,7.5 -14.82,10.4 -4.65,2.88 -10.75,5.48 -18.3,7.79 -7.56,2.3 -16.27,3.47 -26.15,3.47 -20.92,0 -35.87,-4.63 -44.88,-13.86 -9.02,-9.25 -13.51,-19.36 -13.51,-30.31 0,-15.6 5.64,-27 16.94,-34.21 11.3,-7.23 25.5,-13 42.6,-17.33 17.11,-4.32 35.65,-8.37 55.65,-12.12 19.98,-3.76 38.52,-10.4 55.63,-19.92 17.1,-9.53 31.3,-22.95 42.59,-40.27 11.3,-17.32 16.96,-41.57 16.96,-72.75 0,-19.06 -3.89,-37.24 -11.69,-54.56 -7.8,-17.32 -19.05,-32.35 -33.78,-45.03 -14.72,-12.71 -32.77,-22.82 -54.13,-30.32 -21.36,-7.51 -45.33,-11.26 -71.88,-11.26 -21.36,0 -40.13,2.17 -56.29,6.5 -16.17,4.33 -30.47,9.53 -42.87,15.58 -12.42,6.07 -23.25,12.56 -32.48,19.5 -9.24,6.92 -17.32,12.68 -24.25,17.31 l 46.77,71.02 c 24.25,-19.63 46.47,-32.62 66.69,-38.97 20.2,-6.37 34.34,-9.53 42.43,-9.53 30.02,0 49.93,5.33 59.76,16.03 9.81,10.67 14.73,25.24 14.73,43.73 0,17.89 -5.63,31.03 -16.89,39.4 -11.26,8.37 -25.27,15.16 -42.01,20.36 -16.75,5.2 -35.07,9.81 -54.99,13.86 -19.92,4.02 -38.26,10.39 -55,19.05 -16.75,8.65 -30.74,20.92 -42,36.81 -11.26,15.87 -16.89,38.24 -16.89,67.12 0,21.93 4.46,40.7 13.42,56.29 8.95,15.59 20.79,28.28 35.51,38.1 14.72,9.82 31.18,17.03 49.37,21.65 18.19,4.62 36.51,6.94 54.99,6.94"
         style="fill:#403836;fill-opacity:1;fill-rule:nonzero;stroke:none"
         id="path34"
         inkscape:connector-curvature="0" /><path
         d="m 4403.56,3660.25 -103.06,0 0,-353.35 -96.13,0 0,353.35 -72.75,0 0,94.41 72.75,0 0,161.08 96.13,33.78 0,-194.86 103.06,0 0,-94.41"
         style="fill:#403836;fill-opacity:1;fill-rule:nonzero;stroke:none"
         id="path36"
         inkscape:connector-curvature="0" /><path
         d="m 4537.79,3768.52 94.41,0 0,-57.17 c 8.08,10.4 19.62,19.92 34.64,28.58 12.69,6.93 29.44,13.43 50.23,19.48 20.78,6.07 46.77,9.11 77.94,9.11 l 0,-94.41 c -15.58,0 -32.91,-1.44 -51.96,-4.33 -19.05,-2.9 -36.81,-7.66 -53.26,-14.29 -16.46,-6.64 -30.18,-15.45 -41.14,-26.42 -10.97,-10.96 -16.45,-24.54 -16.45,-40.7 l 0,-281.47 -94.41,0 0,461.62"
         style="fill:#403836;fill-opacity:1;fill-rule:nonzero;stroke:none"
         id="path38"
         inkscape:connector-curvature="0" /><path
         d="m 5125.84,3380.52 c 19.63,0 38.11,3.75 55.43,11.26 17.33,7.5 32.33,17.75 45.04,30.74 12.69,12.99 22.8,28.14 30.31,45.47 7.49,17.32 11.26,36.07 11.26,56.3 0,19.62 -3.77,38.24 -11.26,55.86 -7.51,17.59 -17.62,32.91 -30.31,45.89 -12.71,12.99 -27.71,23.24 -45.04,30.75 -17.32,7.5 -35.8,11.26 -55.43,11.26 -19.63,0 -38.1,-3.76 -55.43,-11.26 -17.31,-7.51 -32.47,-17.76 -45.46,-30.75 -13,-12.98 -23.25,-28.3 -30.75,-45.89 -7.51,-17.62 -11.26,-36.24 -11.26,-55.86 0,-20.23 3.75,-38.98 11.26,-56.3 7.5,-17.33 17.75,-32.48 30.75,-45.47 12.99,-12.99 28.15,-23.24 45.46,-30.74 17.33,-7.51 35.8,-11.26 55.43,-11.26 z m 236.44,362.01 0,-435.63 -94.4,0 0,62.36 c -20.22,-25.99 -44.75,-46.77 -73.62,-62.36 -28.88,-15.58 -60.05,-23.38 -93.54,-23.38 -30.02,0 -58.32,6.36 -84.87,19.06 -26.56,12.68 -49.79,30.01 -69.72,51.95 -19.92,21.94 -35.65,47.49 -47.19,76.65 -11.56,29.15 -17.33,60.48 -17.33,93.97 0,33.47 5.77,64.8 17.33,93.97 11.54,29.14 27.27,54.69 47.19,76.64 19.93,21.93 43.16,39.26 69.72,51.96 26.55,12.7 54.85,19.06 84.87,19.06 33.49,0 64.66,-7.66 93.54,-22.95 28.87,-15.31 53.4,-36.24 73.62,-62.8 l 0,61.5 94.4,0"
         style="fill:#403836;fill-opacity:1;fill-rule:nonzero;stroke:none"
         id="path40"
         inkscape:connector-curvature="0" /><path
         d="m 5823.01,3345.88 c -20.22,-11.56 -38.25,-20.35 -54.13,-26.42 -15.88,-6.06 -32.19,-9.96 -48.93,-11.69 -34.65,-3.46 -67.27,0.29 -97.87,11.26 -30.6,10.96 -57.45,26.98 -80.54,48.06 -23.1,21.07 -41.43,46.19 -55,75.35 -13.57,29.15 -20.35,60.19 -20.35,93.1 0,32.33 6.07,63.07 18.2,92.23 12.12,29.15 29.29,54.42 51.52,75.78 22.23,21.36 48.64,37.82 79.25,49.37 30.59,11.54 64.09,16.16 100.46,13.86 28.28,-2.32 54.26,-9.52 77.95,-21.65 l -37.24,-90.07 c -13.86,5.76 -24.4,9.52 -31.61,11.26 -7.23,1.73 -16.9,2.6 -29.02,2.6 -43.31,0 -76.08,-10.98 -98.3,-32.91 -22.23,-21.96 -33.34,-54.87 -33.34,-98.74 0,-43.88 11.55,-76.94 34.64,-99.16 23.09,-22.23 55.43,-33.34 97,-33.34 8.08,0 15.16,0.28 21.22,0.86 6.06,0.57 11.98,1.87 17.75,3.9 5.77,2.01 11.98,4.61 18.62,7.79 6.63,3.17 14.58,7.37 23.82,12.56 l 45.9,-84"
         style="fill:#403836;fill-opacity:1;fill-rule:nonzero;stroke:none"
         id="path42"
         inkscape:connector-curvature="0" /><path
         d="m 6216.2,3660.25 -103.06,0 0,-353.35 -96.14,0 0,353.35 -72.74,0 0,94.41 72.74,0 0,161.08 96.14,33.78 0,-194.86 103.06,0 0,-94.41"
         style="fill:#403836;fill-opacity:1;fill-rule:nonzero;stroke:none"
         id="path44"
         inkscape:connector-curvature="0" /><path
         d="m 2526.84,2928.82 0,0.77 c 0,54.85 43.73,102.42 99.73,102.42 36.83,0 59.85,-16.88 78.26,-36.06 l -13.43,-13.81 c -16.88,17.26 -36.06,32.22 -65.21,32.22 -44.5,0 -79.03,-37.2 -79.03,-84.01 l 0,-0.76 c 0,-47.19 35.68,-84.78 80.57,-84.78 27.61,0 49.1,14.19 65.59,32.6 l 13.04,-11.5 c -19.94,-22.64 -43.73,-38.74 -79.79,-38.74 -56.39,0 -99.73,46.79 -99.73,101.65"
         style="fill:#403836;fill-opacity:1;fill-rule:nonzero;stroke:none"
         id="path46"
         inkscape:connector-curvature="0" /><path
         d="m 2959.2,2928.82 0,0.77 c 0,47.18 -35.3,84.77 -80.57,84.77 -46.41,0 -79.79,-37.97 -79.79,-84.01 l 0,-0.76 c 0,-47.19 35.3,-84.78 80.57,-84.78 46.41,0 79.79,37.97 79.79,84.01 z m -180.68,0 0,0.77 c 0,54.85 42.58,102.42 100.89,102.42 57.92,0 100.11,-46.8 100.11,-101.66 l 0,-0.76 c 0,-54.86 -42.57,-102.42 -100.89,-102.42 -57.92,0 -100.11,46.79 -100.11,101.65"
         style="fill:#403836;fill-opacity:1;fill-rule:nonzero;stroke:none"
         id="path48"
         inkscape:connector-curvature="0" /><path
         d="m 3075.85,3027.4 18.8,0 0,-34.9 c 12.65,20.33 30.3,39.51 65.21,39.51 34.14,0 55.24,-19.57 65.98,-42.2 12.66,21.87 33.76,42.2 70.58,42.2 46.42,0 75.19,-32.61 75.19,-81.71 l 0,-118.53 -18.8,0 0,116.23 c 0,42.19 -21.87,66.75 -57.93,66.75 -32.98,0 -61.75,-25.32 -61.75,-69.05 l 0,-113.93 -18.8,0 0,117.38 c 0,40.66 -22.25,65.6 -57.16,65.6 -34.91,0 -62.52,-30.69 -62.52,-70.2 l 0,-112.78 -18.8,0 0,195.63"
         style="fill:#403836;fill-opacity:1;fill-rule:nonzero;stroke:none"
         id="path50"
         inkscape:connector-curvature="0" /><path
         d="m 3653.22,2928.82 0,0.77 c 0,51.4 -35.67,84.39 -76.72,84.39 -40.66,0 -79.79,-34.14 -79.79,-84.01 l 0,-0.77 c 0,-50.25 39.13,-84.01 79.79,-84.01 42.58,0 76.72,31.08 76.72,83.63 z m -174.16,98.58 18.8,0 0,-43.73 c 16.88,25.7 41.81,48.34 80.56,48.34 47.18,0 95.14,-37.98 95.14,-101.66 l 0,-0.76 c 0,-63.68 -47.96,-102.42 -95.14,-102.42 -39.13,0 -64.44,22.24 -80.56,46.79 l 0,-103.57 -18.8,0 0,257.01"
         style="fill:#403836;fill-opacity:1;fill-rule:nonzero;stroke:none"
         id="path52"
         inkscape:connector-curvature="0" /><path
         d="m 3905.29,2905.04 0,22.24 c -16.5,4.22 -38.36,8.83 -66.37,8.83 -41.43,0 -64.45,-18.42 -64.45,-45.65 l 0,-0.77 c 0,-28.38 26.86,-44.88 56.78,-44.88 39.89,0 74.04,24.55 74.04,60.23 z m -150.76,-16.5 0,0.77 c 0,40.66 34.91,63.68 85.54,63.68 27.24,0 46.04,-3.46 64.83,-8.44 l 0,8.44 c 0,39.51 -24.17,59.84 -64.44,59.84 -23.79,0 -43.35,-6.52 -61.38,-15.73 l -6.91,16.49 c 21.48,9.98 42.58,16.89 69.43,16.89 26.47,0 47.57,-7.3 61.77,-21.49 13.04,-13.04 19.94,-31.07 19.94,-55.24 l 0,-121.98 -18.41,0 0,32.6 c -13.42,-18.79 -37.59,-37.2 -74.8,-37.2 -36.45,0 -75.57,20.71 -75.57,61.37"
         style="fill:#403836;fill-opacity:1;fill-rule:nonzero;stroke:none"
         id="path54"
         inkscape:connector-curvature="0" /><path
         d="m 4029.22,3027.4 18.79,0 0,-36.43 c 13.05,23.01 34.91,41.04 70.59,41.04 49.48,0 78.25,-33.76 78.25,-80.56 l 0,-119.68 -18.79,0 0,116.23 c 0,40.28 -22.64,66.75 -62.15,66.75 -38.36,0 -67.9,-29.15 -67.9,-69.82 l 0,-113.16 -18.79,0 0,195.63"
         style="fill:#403836;fill-opacity:1;fill-rule:nonzero;stroke:none"
         id="path56"
         inkscape:connector-curvature="0" /><path
         d="m 4282.05,2777.68 6.52,16.49 c 10.36,-4.98 18.8,-7.29 33.38,-7.29 20.33,0 33.75,11.9 48.33,46.04 l -93.98,194.48 21.86,0 81.32,-174.92 70.59,174.92 20.71,0 -84.77,-202.54 c -17.27,-41.04 -37.21,-55.62 -65.22,-55.62 -14.96,0 -25.7,2.68 -38.74,8.44"
         style="fill:#403836;fill-opacity:1;fill-rule:nonzero;stroke:none"
         id="path58"
         inkscape:connector-curvature="0" /><path
         d="m 4724.78,2882.02 0,128.13 -28.39,0 0,17.25 28.39,0 0,62.53 18.8,0 0,-62.53 68.66,0 0,-17.25 -68.66,0 0,-126.21 c 0,-28 16.49,-37.98 39.12,-37.98 9.59,0 17.64,1.92 28.77,6.9 l 0,-17.64 c -9.97,-4.61 -19.56,-6.91 -31.84,-6.91 -30.3,0 -54.85,16.5 -54.85,53.71"
         style="fill:#403836;fill-opacity:1;fill-rule:nonzero;stroke:none"
         id="path60"
         inkscape:connector-curvature="0" /><path
         d="m 5040.89,2905.04 0,22.24 c -16.49,4.22 -38.36,8.83 -66.37,8.83 -41.42,0 -64.44,-18.42 -64.44,-45.65 l 0,-0.77 c 0,-28.38 26.86,-44.88 56.78,-44.88 39.89,0 74.03,24.55 74.03,60.23 z m -150.76,-16.5 0,0.77 c 0,40.66 34.91,63.68 85.55,63.68 27.23,0 46.03,-3.46 64.83,-8.44 l 0,8.44 c 0,39.51 -24.17,59.84 -64.45,59.84 -23.78,0 -43.34,-6.52 -61.38,-15.73 l -6.9,16.49 c 21.48,9.98 42.58,16.89 69.43,16.89 26.47,0 47.57,-7.3 61.76,-21.49 13.04,-13.04 19.95,-31.07 19.95,-55.24 l 0,-121.98 -18.41,0 0,32.6 c -13.43,-18.79 -37.6,-37.2 -74.81,-37.2 -36.44,0 -75.57,20.71 -75.57,61.37"
         style="fill:#403836;fill-opacity:1;fill-rule:nonzero;stroke:none"
         id="path62"
         inkscape:connector-curvature="0" /><path
         d="m 5329.02,2938.79 0,0.77 c 0,45.26 -40.29,74.42 -80.95,74.42 -41.05,0 -75.57,-28.38 -75.57,-74.04 l 0,-0.76 c 0,-44.12 35.29,-74.81 75.57,-74.81 40.66,0 80.95,29.93 80.95,74.42 z m -168.03,-139.25 11.13,15.35 c 23.4,-18.03 50.25,-27.62 79.01,-27.62 44.89,0 76.73,25.7 76.73,75.95 l 0,28.39 c -16.88,-24.17 -42.97,-45.26 -81.71,-45.26 -47.18,0 -93.98,36.05 -93.98,92.06 l 0,0.77 c 0,56.39 46.8,92.83 93.98,92.83 39.13,0 65.6,-20.71 81.71,-43.73 l 0,39.12 18.79,0 0,-165.33 c 0,-28.39 -9.2,-50.63 -24.93,-66.36 -16.87,-16.88 -42.2,-26.09 -70.97,-26.09 -32.6,0 -62.91,9.98 -89.76,29.92"
         style="fill:#403836;fill-opacity:1;fill-rule:nonzero;stroke:none"
         id="path64"
         inkscape:connector-curvature="0" /><path
         d="m 5459.08,2831.77 18.7969,0 0,280.031 -18.7969,0 0,-280.031 z"
         style="fill:#403836;fill-opacity:1;fill-rule:nonzero;stroke:none"
         id="path66"
         inkscape:connector-curvature="0" /><path
         d="m 5592.98,3027.4 18.8,0 0,-195.63 -18.8,0 0,195.63 z m -2.3,76.73 23.4,0 0,-25.7 -23.4,0 0,25.7"
         style="fill:#403836;fill-opacity:1;fill-rule:nonzero;stroke:none"
         id="path68"
         inkscape:connector-curvature="0" /><path
         d="m 5724.18,3027.4 18.8,0 0,-36.43 c 13.05,23.01 34.91,41.04 70.59,41.04 49.48,0 78.25,-33.76 78.25,-80.56 l 0,-119.68 -18.8,0 0,116.23 c 0,40.28 -22.63,66.75 -62.14,66.75 -38.36,0 -67.9,-29.15 -67.9,-69.82 l 0,-113.16 -18.8,0 0,195.63"
         style="fill:#403836;fill-opacity:1;fill-rule:nonzero;stroke:none"
         id="path70"
         inkscape:connector-curvature="0" /><path
         d="m 6146.56,2938.79 c -2.68,39.51 -25.31,75.96 -70.19,75.96 -38.75,0 -68.67,-32.61 -72.12,-75.96 l 142.31,0 z m -162.26,-9.59 0,0.77 c 0,56.78 39.9,102.04 92.83,102.04 54.86,0 89.77,-44.5 89.77,-102.42 0,-3.46 0,-4.61 -0.38,-7.68 l -162.27,0 c 3.45,-48.72 38.36,-77.1 76.72,-77.1 30.3,0 51.02,13.42 67.13,30.69 l 13.04,-11.51 c -19.95,-21.48 -43.35,-36.82 -80.93,-36.82 -51.41,0 -95.91,41.04 -95.91,102.03"
         style="fill:#403836;fill-opacity:1;fill-rule:nonzero;stroke:none"
         id="path72"
         inkscape:connector-curvature="0" /><path
         d="M 351.668,67.4102 881.488,375.98 716.34,375.98 337.02,196.852 351.668,67.4102"
         style="fill:#e5ee4e;fill-opacity:1;fill-rule:nonzero;stroke:none"
         id="path74"
         inkscape:connector-curvature="0" /><path
         d="m 881.488,375.98 0,-67.41 L 351.668,0 l 0,81.1602 529.82,294.8198"
         style="fill:#c1df14;fill-opacity:1;fill-rule:nonzero;stroke:none"
         id="path76"
         inkscape:connector-curvature="0" /><path
         d="M 0,0 351.668,0 899.02,954.25 881.777,1524.3 0,0"
         style="fill:#c1df14;fill-opacity:1;fill-rule:nonzero;stroke:none"
         id="path78"
         inkscape:connector-curvature="0" /><path
         d="m 879.168,919.711 2.609,604.589 702.473,-1216.718 -352.54,0 -352.542,612.129"
         style="fill:#e5ee4e;fill-opacity:1;fill-rule:nonzero;stroke:none"
         id="path80"
         inkscape:connector-curvature="0" /><path
         d="m 881.777,1524.3 0,-122.94 L 1321.8,762.152 881.777,1524.3"
         style="fill:#a8c21d;fill-opacity:1;fill-rule:nonzero;stroke:none"
         id="path82"
         inkscape:connector-curvature="0" /><path
         d="m 882.41,1524.3 0,-122.94 L 442.383,762.152 882.41,1524.3"
         style="fill:#a8c21d;fill-opacity:1;fill-rule:nonzero;stroke:none"
         id="path84"
         inkscape:connector-curvature="0" /><path
         d="m 778.723,497.121 100.445,0 0,173.981 -100.445,-173.981"
         style="fill:#e5ee4e;fill-opacity:1;fill-rule:nonzero;stroke:none"
         id="path86"
         inkscape:connector-curvature="0" /><path
         d="m 879.168,671.102 0,-173.981 100.449,0 -100.449,173.981"
         style="fill:#c1df14;fill-opacity:1;fill-rule:nonzero;stroke:none"
         id="path88"
         inkscape:connector-curvature="0" /><path
         d="m 5085.82,67.4102 529.83,308.5698 -165.16,0 -379.31,-179.128 14.64,-129.4418"
         style="fill:#cbe0eb;fill-opacity:1;fill-rule:nonzero;stroke:none"
         id="path90"
         inkscape:connector-curvature="0" /><path
         d="m 5615.65,375.98 0,-67.41 L 5085.82,0 l 0,81.1602 529.83,294.8198"
         style="fill:#a7bbc9;fill-opacity:1;fill-rule:nonzero;stroke:none"
         id="path92"
         inkscape:connector-curvature="0" /><path
         d="m 4734.16,0 351.67,0 547.35,954.25 -17.25,570.05 L 4734.16,0"
         style="fill:#a7bbc9;fill-opacity:1;fill-rule:nonzero;stroke:none"
         id="path94"
         inkscape:connector-curvature="0" /><path
         d="m 5613.33,919.711 2.6,604.589 702.48,-1216.718 -352.54,0 -352.54,612.129"
         style="fill:#cbe0eb;fill-opacity:1;fill-rule:nonzero;stroke:none"
         id="path96"
         inkscape:connector-curvature="0" /><path
         d="m 5615.93,1524.3 0,-122.94 440.03,-639.208 -440.03,762.148"
         style="fill:#92a8b6;fill-opacity:1;fill-rule:nonzero;stroke:none"
         id="path98"
         inkscape:connector-curvature="0" /><path
         d="m 5616.57,1524.3 0,-122.94 -440.03,-639.208 440.03,762.148"
         style="fill:#92a8b6;fill-opacity:1;fill-rule:nonzero;stroke:none"
         id="path100"
         inkscape:connector-curvature="0" /><path
         d="m 5512.88,497.121 100.45,0 0,173.981 -100.45,-173.981"
         style="fill:#cbe0eb;fill-opacity:1;fill-rule:nonzero;stroke:none"
         id="path102"
         inkscape:connector-curvature="0" /><path
         d="m 5613.33,671.102 0,-173.981 100.44,0 -100.44,173.981"
         style="fill:#a7bbc9;fill-opacity:1;fill-rule:nonzero;stroke:none"
         id="path104"
         inkscape:connector-curvature="0" /><path
         d="m 2893.87,67.4102 529.82,308.5698 -165.15,0 -379.32,-179.128 14.65,-129.4418"
         style="fill:#0799b5;fill-opacity:1;fill-rule:nonzero;stroke:none"
         id="path106"
         inkscape:connector-curvature="0" /><path
         d="m 3423.69,375.98 0,-67.41 L 2893.87,0 l 0,81.1602 529.82,294.8198"
         style="fill:#07717e;fill-opacity:1;fill-rule:nonzero;stroke:none"
         id="path108"
         inkscape:connector-curvature="0" /><path
         d="m 2542.2,0 351.67,0 547.35,954.25 -17.24,570.05 L 2542.2,0"
         style="fill:#07717e;fill-opacity:1;fill-rule:nonzero;stroke:none"
         id="path110"
         inkscape:connector-curvature="0" /><path
         d="m 3421.37,919.711 2.61,604.589 702.47,-1216.718 -352.54,0 -352.54,612.129"
         style="fill:#0799b5;fill-opacity:1;fill-rule:nonzero;stroke:none"
         id="path112"
         inkscape:connector-curvature="0" /><path
         d="m 3423.98,1524.3 0,-122.94 L 3864,762.152 3423.98,1524.3"
         style="fill:#07717e;fill-opacity:1;fill-rule:nonzero;stroke:none"
         id="path114"
         inkscape:connector-curvature="0" /><path
         d="m 3424.61,1524.3 0,-122.94 -440.02,-639.208 440.02,762.148"
         style="fill:#005d67;fill-opacity:1;fill-rule:nonzero;stroke:none"
         id="path116"
         inkscape:connector-curvature="0" /><path
         d="m 3320.92,497.121 100.45,0 0,173.981 -100.45,-173.981"
         style="fill:#0799b5;fill-opacity:1;fill-rule:nonzero;stroke:none"
         id="path118"
         inkscape:connector-curvature="0" /><path
         d="m 3421.37,671.102 0,-173.981 100.45,0 -100.45,173.981"
         style="fill:#07717e;fill-opacity:1;fill-rule:nonzero;stroke:none"
         id="path120"
         inkscape:connector-curvature="0" /><path
         d="m 7628.03,67.4102 529.82,308.5698 -165.15,0 -379.32,-179.128 14.65,-129.4418"
         style="fill:#cf181f;fill-opacity:1;fill-rule:nonzero;stroke:none"
         id="path122"
         inkscape:connector-curvature="0" /><path
         d="m 8157.85,375.98 0,-67.41 L 7628.03,0 l 0,81.1602 529.82,294.8198"
         style="fill:#9c1116;fill-opacity:1;fill-rule:nonzero;stroke:none"
         id="path124"
         inkscape:connector-curvature="0" /><path
         d="m 7276.36,0 351.67,0 547.35,954.25 -17.25,570.05 L 7276.36,0"
         style="fill:#9c1116;fill-opacity:1;fill-rule:nonzero;stroke:none"
         id="path126"
         inkscape:connector-curvature="0" /><path
         d="m 8155.53,919.711 2.6,604.589 702.48,-1216.718 -352.54,0 -352.54,612.129"
         style="fill:#cf181f;fill-opacity:1;fill-rule:nonzero;stroke:none"
         id="path128"
         inkscape:connector-curvature="0" /><path
         d="m 8158.13,1524.3 0,-122.94 440.03,-639.208 -440.03,762.148"
         style="fill:#9c1116;fill-opacity:1;fill-rule:nonzero;stroke:none"
         id="path130"
         inkscape:connector-curvature="0" /><path
         d="m 8158.77,1524.3 0,-122.94 -440.03,-639.208 440.03,762.148"
         style="fill:#690a0d;fill-opacity:1;fill-rule:nonzero;stroke:none"
         id="path132"
         inkscape:connector-curvature="0" /><path
         d="m 8055.08,497.121 100.45,0 0,173.981 -100.45,-173.981"
         style="fill:#cf181f;fill-opacity:1;fill-rule:nonzero;stroke:none"
         id="path134"
         inkscape:connector-curvature="0" /><path
         d="m 8155.53,671.102 0,-173.981 100.44,0 -100.44,173.981"
         style="fill:#9c1116;fill-opacity:1;fill-rule:nonzero;stroke:none"
         id="path136"
         inkscape:connector-curvature="0" /></g><g
       transform="scale(1,-1)"
       style="font-style:normal;font-weight:normal;font-size:32px;line-height:125%;font-family:sans-serif;letter-spacing:18.3920002px;word-spacing:0px;fill:#000000;fill-opacity:1;stroke:none;stroke-width:1px;stroke-linecap:butt;stroke-linejoin:miter;stroke-opacity:1"
       id="text4264"><path
         d="m 273.47946,-31.993797 -18.50586,0 -4.29687,-11.621094 -23.92578,0 -4.58985,11.621094 -18.31054,0 25.63476,-66.650391 18.89649,0 25.09765,66.650391 z m -27.49023,-24.804688 -7.17774,-21.240234 -7.27539,21.240234 14.45313,0 z"
         style="font-style:normal;font-variant:normal;font-weight:bold;font-stretch:normal;font-size:100px;font-family:Aharoni;-inkscape-font-specification:'Aharoni Bold';fill:#f35a5a;fill-opacity:1"
         id="path4326" /><path
         d="m 347.63318,-33.556297 q -8.4961,3.36914 -15.72266,3.36914 -12.59765,0 -22.55859,-8.05664 -12.69531,-10.302735 -12.69531,-26.855469 0,-16.601563 12.69531,-26.904297 9.96094,-8.056637 22.70508,-8.056637 6.93359,0 15.57617,3.369137 l 0,20.751953 q -2.44141,-2.978515 -4.98047,-4.492187 -4.63867,-2.783203 -9.96094,-2.783203 -6.73828,0 -11.71875,4.052734 -6.29883,5.126953 -6.29883,14.0625 0,8.886719 6.29883,14.013672 4.98047,4.052734 11.71875,4.052734 5.32227,0 9.96094,-2.783203 2.49023,-1.464844 4.98047,-4.492187 l 0,20.751953 z"
         style="font-style:normal;font-variant:normal;font-weight:bold;font-stretch:normal;font-size:100px;font-family:Aharoni;-inkscape-font-specification:'Aharoni Bold';fill:#f35a5a;fill-opacity:1"
         id="path4328" /><path
         d="m 447.81229,-65.099266 q 0,13.574219 -9.03321,23.828125 -10.30273,11.669922 -27.88086,11.669922 -17.52929,0 -27.83203,-11.669922 -9.0332,-10.253906 -9.0332,-23.828125 0,-6.201172 2.44141,-12.695313 2.4414,-6.542968 6.54296,-11.18164 10.30274,-11.669921 27.88086,-11.669921 17.57813,0 27.88086,11.669921 9.03321,10.253906 9.03321,23.876953 z m -18.01758,0 q 0,-7.03125 -4.49219,-12.158203 -5.76172,-6.542969 -14.4043,-6.542969 -5.95703,0 -10.79101,3.369141 -4.83399,3.320312 -6.88477,8.886718 -1.17187,3.173829 -1.17187,6.445313 0,6.738281 4.49219,12.060547 5.5664,6.591797 14.35546,6.591797 8.78907,0 14.4043,-6.542969 4.49219,-5.224609 4.49219,-12.109375 z"
         style="font-style:normal;font-variant:normal;font-weight:bold;font-stretch:normal;font-size:100px;font-family:Aharoni;-inkscape-font-specification:'Aharoni Bold';fill:#f35a5a;fill-opacity:1"
         id="path4330" /><path
         d="m 532.65936,-31.993797 -21.58203,0 -16.5039,-25.585938 0,25.585938 -17.33399,0 0,-66.650391 26.95313,0 q 11.8164,0 17.48046,7.080078 4.58985,5.712891 4.58985,13.427735 0,8.83789 -5.27344,14.111328 -3.36914,3.36914 -9.27734,4.6875 l 20.94726,27.34375 z M 508.2453,-77.159813 q 0,-3.564453 -2.58789,-6.005859 -2.44141,-2.294922 -7.86133,-2.294922 l -3.22265,0 0,16.65039 3.22265,0 q 5.46875,0 7.86133,-2.294921 2.58789,-2.490235 2.58789,-6.054688 z"
         style="font-style:normal;font-variant:normal;font-weight:bold;font-stretch:normal;font-size:100px;font-family:Aharoni;-inkscape-font-specification:'Aharoni Bold';fill:#f35a5a;fill-opacity:1"
         id="path4332" /><path
         d="m 629.12753,-65.099266 q 0,13.574219 -9.0332,23.828125 -10.30273,11.669922 -27.88086,11.669922 -17.5293,0 -27.83203,-11.669922 -9.0332,-10.253906 -9.0332,-23.828125 0,-6.201172 2.4414,-12.695313 2.44141,-6.542968 6.54297,-11.18164 10.30274,-11.669921 27.88086,-11.669921 17.57813,0 27.88086,11.669921 9.0332,10.253906 9.0332,23.876953 z m -18.01758,0 q 0,-7.03125 -4.49218,-12.158203 -5.76172,-6.542969 -14.4043,-6.542969 -5.95703,0 -10.79102,3.369141 -4.83398,3.320312 -6.88476,8.886718 -1.17188,3.173829 -1.17188,6.445313 0,6.738281 4.49219,12.060547 5.56641,6.591797 14.35547,6.591797 8.78906,0 14.4043,-6.542969 4.49218,-5.224609 4.49218,-12.109375 z"
         style="font-style:normal;font-variant:normal;font-weight:bold;font-stretch:normal;font-size:100px;font-family:Aharoni;-inkscape-font-specification:'Aharoni Bold';fill:#f35a5a;fill-opacity:1"
         id="path4334" /><path
         d="m 725.10742,-31.993797 -17.33398,0 -31.88477,-40.820313 0,40.820313 -17.33398,0 0,-66.650391 17.33398,0 31.88477,40.771484 0,-40.771484 17.33398,0 0,66.650391 z"
         style="font-style:normal;font-variant:normal;font-weight:bold;font-stretch:normal;font-size:100px;font-family:Aharoni;-inkscape-font-specification:'Aharoni Bold';fill:#f35a5a;fill-opacity:1"
         id="path4336" /></g></g></svg>